# xmcd
#
# Track frame offsets:
#	151
#	22335
#	37090
#	52651
#	74695
#	95308
#	117238
#	134518
#	154257
#	167837
#	184596
#	203398
#	217207
#	235004
#	250978
#	266809
#	284568
#	301114
#	315819
#	338194
#
# Disc length: 4740 seconds
#
# Revision: 0
# Processed by: cddbd v1.5.1PL0 Copyright (c) Steve Scherf et al.
# Submitted via: dBpowerAMP V4.0
#
DISCID=26128214
DTITLE=Various Artist - Gabberbox 18 CD2
DYEAR=2001
DGENRE=Gabber
TTITLE0=Wicked - Mate, You've Been Fucked!
TTITLE1=Bazeman - Can You Feel The Baze
TTITLE2=Baba Nation - Brain Pumpin' (Stunned Guys Remix)
TTITLE3=Dione - Fuck You Very Much
TTITLE4=Raxx - Bring That Beat Back
TTITLE5=Steve Shit - Havin' Sex
TTITLE6=Lost Soul - The Future
TTITLE7=Raven - A New Era
TTITLE8=Scumback - Damn Nation
TTITLE9=Toni Salmonelli - Her Once Again (Buzz Fuzz Remix)
TTITLE10=Perry - Your Attack
TTITLE11=Juggernaut - Ruffneck Rules Da Artcore Scene
TTITLE12=Perpatrator - Fucking You Hard
TTITLE13=Innerchild - Who're You Fucking With
TTITLE14=Freakin' Fonz - Back Into Consciousness
TTITLE15=Mindtraveller - It's Getting Closer
TTITLE16=Brainiac - Beatz Fugacity
TTITLE17=Wiseguy - Wicked
TTITLE18=Sixth Sense - Overdose
TTITLE19=Ingler - Future Is Dead
EXTD=the second cd of Gabberbx 18 (3 cd's) i saw you allready had the first one this is tracklist of the second one.\n
EXTT0=
EXTT1=
EXTT2=
EXTT3=
EXTT4=
EXTT5=
EXTT6=
EXTT7=
EXTT8=
EXTT9=
EXTT10=
EXTT11=
EXTT12=
EXTT13=
EXTT14=
EXTT15=
EXTT16=
EXTT17=
EXTT18=
EXTT19=
PLAYORDER=
